<?xml version="1.0" encoding="utf-8"?>
<!-- Generator: Adobe Illustrator 21.1.0, SVG Export Plug-In . SVG Version: 6.00 Build 0)  -->
<svg version="1.1" id="Layer_1" xmlns="http://www.w3.org/2000/svg" xmlns:xlink="http://www.w3.org/1999/xlink" x="0px" y="0px"
	 viewBox="0 0 128 128" style="enable-background:new 0 0 128 128;" xml:space="preserve">
<style type="text/css">
	.st0{fill:url(#SVGID_1_);}
	.st1{fill:url(#SVGID_2_);}
	.st2{opacity:0.46;fill:#FFFFFF;}
	.st3{fill:#1B031F;}
	.st4{fill:#FFC12B;}
	.st5{fill:#5B585B;}
	.st6{fill:#FFFFFF;}
	.st7{fill:url(#SVGID_3_);}
	.st8{opacity:0.3;fill:#FB9A20;}
	.st9{fill:#FFC32B;}
	.st10{opacity:0.2;fill:#FB9A20;}
	.st11{fill:url(#SVGID_4_);}
	.st12{opacity:0.4;fill:#FB9A20;}
	.st13{opacity:0.2;fill:#E39A47;}
	.st14{fill:url(#SVGID_5_);}
	.st15{fill:url(#SVGID_6_);}
	.st16{fill:url(#SVGID_7_);}
	.st17{fill:url(#SVGID_8_);}
	.st18{fill:url(#SVGID_9_);}
	.st19{fill:url(#SVGID_10_);}
	.st20{fill:url(#SVGID_11_);}
	.st21{fill:url(#SVGID_12_);}
	.st22{fill:url(#SVGID_13_);}
	.st23{fill:url(#SVGID_14_);}
	.st24{fill:url(#SVGID_15_);}
	.st25{fill:url(#SVGID_16_);}
	.st26{fill:url(#SVGID_17_);}
	.st27{clip-path:url(#SVGID_19_);fill:#FFFFFF;}
	.st28{clip-path:url(#SVGID_21_);fill:#FFFFFF;}
</style>
<linearGradient id="SVGID_1_" gradientUnits="userSpaceOnUse" x1="64.0013" y1="128" x2="64.0013" y2="0">
	<stop  offset="0" style="stop-color:#FFC32B"/>
	<stop  offset="1" style="stop-color:#FB9A20"/>
</linearGradient>
<rect x="0" class="st0" width="128" height="128"/>
<path class="st6" d="M39.2,57.8l38.2-38.2c1.1-1.1,3-1.1,4.2,0l23.8,23.8c0.6,0.6,0.9,1.3,0.9,2.1c0,0.8-0.3,1.5-0.9,2.1l-2.7,2.7
	l7.4,7.4l2.7-2.7c2.5-2.5,3.9-5.9,3.9-9.5c0-3.6-1.4-7-3.9-9.5L89,12.2c-5.2-5.2-13.8-5.2-19,0L31.8,50.3L39.2,57.8z M75,29.2
	l-7.4,7.4l37.8,37.8c0.6,0.6,0.9,1.3,0.9,2.1c0,0.8-0.3,1.5-0.9,2.1L77.3,107c-3.4,3.4-8,5.3-12.9,5.3s-9.5-1.9-12.9-5.4L22.6,78.6
	c-1.1-1.1-1.1-3,0-4.2l2.3-2.3l-7.4-7.4L15.2,67c-5.2,5.2-5.2,13.8,0,19l28.9,28.4c5.4,5.4,12.6,8.4,20.3,8.4c7.7,0,14.9-3,20.3-8.4
	L112.8,86c2.5-2.5,3.9-5.9,3.9-9.5c0-3.6-1.4-7-3.9-9.5L75,29.2z M54.5,94.3c2.5,2.5,5.9,3.9,9.5,3.9c3.6,0,7-1.4,9.5-3.9l22.8-22.8
	l-7.4-7.4L66.1,86.9c-1.1,1.1-3,1.1-4.2,0L22.6,47.6c-1.1-1.1-1.1-3,0-4.2l23.8-23.8c1.1-1.1,3-1.1,4.2,0l2.8,2.8l7.4-7.4L58,12.2
	c-5.2-5.2-13.8-5.2-19,0L15.2,36c-5.2,5.2-5.2,13.8,0,19L54.5,94.3z"/>
</svg>
